<svg width="1200" height="330" viewBox="0 0 1200 330" fill="none" xmlns="http://www.w3.org/2000/svg">
<rect width="1200" height="330" rx="16" fill="#0B0F14"/>

<rect x="20" y="20" width="1160" height="290" rx="12" fill="#0F151C" stroke="#2B3744"/>

<!-- terminal top bar -->
<circle cx="52" cy="50" r="6" fill="#FF5F57"/>
<circle cx="72" cy="50" r="6" fill="#FEBC2E"/>
<circle cx="92" cy="50" r="6" fill="#28C840"/>
<text x="120" y="55" fill="#6F7D8A" font-family="monospace" font-size="11">nabil@workshop: ~/currently-building</text>
<path d="M40 76H1160" stroke="#26333F"/>

<!-- left status -->
<text x="52" y="111" fill="#57D8FF" font-family="monospace" font-size="11">&gt; status --current</text>
<circle cx="58" cy="144" r="7" fill="#42D77D"/>
<text x="78" y="149" fill="#F0F4F8" font-family="monospace" font-size="17">ACTIVE</text>
<text x="52" y="177" fill="#68798A" font-family="monospace" font-size="10">MODE</text>
<text x="105" y="177" fill="#A8B5C2" font-family="monospace" font-size="10">LEARNING + BUILDING</text>
<text x="52" y="199" fill="#68798A" font-family="monospace" font-size="10">CYCLE</text>
<text x="105" y="199" fill="#A8B5C2" font-family="monospace" font-size="10">DESIGN → CODE → TEST</text>

<!-- tasks -->
<rect x="360" y="98" width="760" height="178" rx="10" fill="#0B1117" stroke="#26333F"/>
<text x="386" y="126" fill="#6F7D8A" font-family="monospace" font-size="10">TASK_QUEUE</text>

<text x="386" y="154" fill="#42D77D" font-family="monospace" font-size="11">[x]</text>
<text x="420" y="154" fill="#D5DEE7" font-family="monospace" font-size="11">frontend fundamentals</text>

<text x="386" y="180" fill="#42D77D" font-family="monospace" font-size="11">[x]</text>
<text x="420" y="180" fill="#D5DEE7" font-family="monospace" font-size="11">responsive interface design</text>

<text x="386" y="206" fill="#57D8FF" font-family="monospace" font-size="11">[&gt;]</text>
<text x="420" y="206" fill="#F0F4F8" font-family="monospace" font-size="11">fullstack workflow</text>
<text x="650" y="206" fill="#57D8FF" font-family="monospace" font-size="9">IN PROGRESS</text>

<text x="386" y="232" fill="#68798A" font-family="monospace" font-size="11">[ ]</text>
<text x="420" y="232" fill="#A8B5C2" font-family="monospace" font-size="11">ship more personal projects</text>

<text x="386" y="258" fill="#68798A" font-family="monospace" font-size="11">[ ]</text>
<text x="420" y="258" fill="#A8B5C2" font-family="monospace" font-size="11">improve backend architecture</text>

<text x="52" y="252" fill="#536270" font-family="monospace" font-size="10">BUILD // 2026</text>
<text x="52" y="271" fill="#536270" font-family="monospace" font-size="10">ITERATION // 01</text>
</svg>