<svg width="1200" height="360" viewBox="0 0 1200 360" fill="none" xmlns="http://www.w3.org/2000/svg">
<rect width="1200" height="360" rx="18" fill="#0B0F14"/>
<path d="M0 40H1200M0 80H1200M0 120H1200M0 160H1200M0 200H1200M0 240H1200M0 280H1200M0 320H1200" stroke="#18212B" stroke-width="1"/>
<path d="M80 0V360M160 0V360M240 0V360M320 0V360M400 0V360M480 0V360M560 0V360M640 0V360M720 0V360M800 0V360M880 0V360M960 0V360M1040 0V360M1120 0V360" stroke="#151D26" stroke-width="1"/>
<rect x="48" y="42" width="1104" height="276" rx="14" fill="#0F151C" stroke="#2B3744"/>
<circle cx="78" cy="70" r="6" fill="#FF5F57"/>
<circle cx="98" cy="70" r="6" fill="#FEBC2E"/>
<circle cx="118" cy="70" r="6" fill="#28C840"/>
<text x="150" y="75" fill="#7F8C9B" font-family="monospace" font-size="13">nabil@workshop: ~/profile</text>
<path d="M76 108H1124" stroke="#25303B"/>
<text x="82" y="145" fill="#57D8FF" font-family="monospace" font-size="14">&gt; whoami</text>
<text x="82" y="185" fill="#F0F4F8" font-family="Arial, sans-serif" font-size="36" font-weight="700">NABIL Z. DANENDRA</text>
<text x="84" y="215" fill="#9EABB8" font-family="monospace" font-size="15">Information Technology • Frontend • Fullstack Learning</text>
<text x="82" y="258" fill="#57D8FF" font-family="monospace" font-size="14">&gt; current_status</text>
<circle cx="233" cy="253" r="5" fill="#42D77D"/>
<text x="248" y="258" fill="#D5DEE7" font-family="monospace" font-size="14">building things, learning things.</text>
<rect x="850" y="132" width="235" height="108" rx="10" fill="#0B1117" stroke="#27333F"/>
<text x="870" y="157" fill="#68798A" font-family="monospace" font-size="11">WORKSPACE.STATUS</text>
<text x="870" y="184" fill="#42D77D" font-family="monospace" font-size="16">● ONLINE</text>
<text x="870" y="208" fill="#A8B5C2" font-family="monospace" font-size="11">BUILD // 2026</text>
<text x="870" y="228" fill="#A8B5C2" font-family="monospace" font-size="11">MODE  // CREATE</text>
<text x="82" y="296" fill="#536270" font-family="monospace" font-size="11">01 / explore  ·  02 / build  ·  03 / ship  ·  04 / repeat</text>
</svg>